HIERARCHY
ROOT root
{
	OFFSET	0	13.1	24.9
	CHANNELS 6  Xposition Yposition Zposition Xrotation Yrotation Zrotation
	JOINT spine_1
	{
		OFFSET	0	9.99999	0
		CHANNELS 3  Xrotation Yrotation Zrotation
		JOINT spine_2
		{
			OFFSET	0	112	-10
			CHANNELS 3  Xrotation Yrotation Zrotation
			JOINT spine_3
			{
				OFFSET	0	206.5	19.3
				CHANNELS 3  Xrotation Yrotation Zrotation
				JOINT spine_4
				{
					OFFSET	0	110.4	14.6
					CHANNELS 3  Xrotation Yrotation Zrotation
					JOINT neck_1
					{
						OFFSET	0	71.8	-50.3
						CHANNELS 3  Xrotation Yrotation Zrotation
						JOINT neck_2
						{
							OFFSET	0	86.2	-25.8
							CHANNELS 3  Xrotation Yrotation Zrotation
							JOINT head_ee
							{
								OFFSET	0	179.8	-8.7
								CHANNELS 3  Xrotation Yrotation Zrotation
								End Site
								{
									OFFSET	1	0	0
								}
							}
						}
					}
					JOINT left_clavicle
					{
						OFFSET	-43.2	22.4	-70.8
						CHANNELS 3  Xrotation Yrotation Zrotation
						JOINT left_shoulder
						{
							OFFSET	-93.9	-5.79999	48.7
							CHANNELS 3  Xrotation Yrotation Zrotation
							JOINT left_elbow
							{
								OFFSET	-291.4	-30.8	15.2
								CHANNELS 3  Xrotation Yrotation Zrotation
								JOINT left_lowarm_twist
								{
									OFFSET	-110.7	-3.89999	13.6
									CHANNELS 3  Xrotation Yrotation Zrotation
									JOINT left_hand
									{
										OFFSET	-110.7	-3.89999	13.6
										CHANNELS 3  Xrotation Yrotation Zrotation
										JOINT left_ee
										{
											OFFSET	-80.8	-5.10001	12.1
											CHANNELS 3  Xrotation Yrotation Zrotation
											End Site
											{
												OFFSET	1	0	0
											}
										}
									}
								}
							}
						}
					}
					JOINT right_clavicle
					{
						OFFSET	43.2	22.4	-70.8
						CHANNELS 3  Xrotation Yrotation Zrotation
						JOINT right_shoulder
						{
							OFFSET	93.9	-5.79999	48.7
							CHANNELS 3  Xrotation Yrotation Zrotation
							JOINT right_elbow
							{
								OFFSET	291.4	-30.8	15.2
								CHANNELS 3  Xrotation Yrotation Zrotation
								JOINT right_lowarm_twist
								{
									OFFSET	110.7	-3.89999	13.6
									CHANNELS 3  Xrotation Yrotation Zrotation
									JOINT right_hand
									{
										OFFSET	110.7	-3.89999	13.6
										CHANNELS 3  Xrotation Yrotation Zrotation
										JOINT right_ee
										{
											OFFSET	80.8	-5.10001	12.1
											CHANNELS 3  Xrotation Yrotation Zrotation
											End Site
											{
												OFFSET	1	0	0
											}
										}
									}
								}
							}
						}
					}
				}
			}
		}
	}
	JOINT left_hip
	{
		OFFSET	-82.8	-127.5	0.300001
		CHANNELS 3  Xrotation Yrotation Zrotation
		JOINT left_knee
		{
			OFFSET	-28.2	-396.7	2.2
			CHANNELS 3  Xrotation Yrotation Zrotation
			JOINT left_ankle
			{
				OFFSET	-11.7	-411.3	35.4
				CHANNELS 3  Xrotation Yrotation Zrotation
				JOINT left_toes
				{
					OFFSET	0	-60	-88.6
					CHANNELS 3  Xrotation Yrotation Zrotation
					JOINT left_foot_ee
					{
						OFFSET	-22.5	-16.5	-42.2
						CHANNELS 3  Xrotation Yrotation Zrotation
						End Site
						{
							OFFSET	1	0	0
						}
					}
				}
			}
		}
	}
	JOINT right_hip
	{
		OFFSET	82.8	-127.5	0.300001
		CHANNELS 3  Xrotation Yrotation Zrotation
		JOINT right_knee
		{
			OFFSET	28.2	-396.7	2.2
			CHANNELS 3  Xrotation Yrotation Zrotation
			JOINT right_ankle
			{
				OFFSET	11.7	-411.3	35.4
				CHANNELS 3  Xrotation Yrotation Zrotation
				JOINT right_toes
				{
					OFFSET	0	-60	-88.6
					CHANNELS 3  Xrotation Yrotation Zrotation
					JOINT right_foot_ee
					{
						OFFSET	22.5	-16.5	-42.2
						CHANNELS 3  Xrotation Yrotation Zrotation
						End Site
						{
							OFFSET	1	0	0
						}
					}
				}
			}
		}
	}
}
MOTION
Frames: 6
Frame Time: 0.02
2566.85252637 759.429 -1512.15958718 35.4616516435 83.3064922894 -36.118613027 -1.5634 -0.0495748 -0.800839 -1.56304 0.00148343 -0.802371 -1.56277 0.191423 -0.779205 -1.56361 0.0659641 -0.799656 -8.71139 12.1204 4.84683 -8.72578 19.3565 7.55251 -0.0 0.0 -0.0 6.42396 24.9142 11.5041 -8.22806 12.1975 68.7596 0.19981 -5.65287 0.00986474 -11.3696 -0.5364 1.34869 -1.43065 7.06741 -6.37465 -0.0 0.0 -0.0 10.1247 -4.25417 -19.6398 -5.49617 31.042 -55.5199 1.48747 36.3822 -0.488823 -33.8839 2.32544 -3.5877 7.49132 -35.1333 -69.7013 0.0 0.0 0.0 1.3013 -10.3355 -4.25197 -34.2079 -0.139967 5.17076 23.8086 22.8708 -3.32112 -39.1644 0.0 0.0 -0.0 0.0 -0.0 10.3372 -9.32443 -0.986366 -6.5846 -0.214568 -0.987208 -4.16227 21.8261 -0.71253 25.0417 -0.0 -0.0 0.0 0.0 0.0 
2551.2488278 756.111 -1498.53455467 45.4609555111 85.5542174843 -46.2614517378 -1.09938 0.200588 -0.706293 -1.09914 0.245124 -0.692099 -1.10204 0.397084 -0.617587 -1.10245 0.294566 -0.672546 -9.7026 12.4081 4.25457 -9.78318 20.4704 7.214 -0.0 0.0 -0.0 5.35261 25.3128 10.0146 -11.5323 12.6109 70.1693 0.337307 -9.48622 0.0279873 -10.1838 -0.468052 1.21326 -1.7523 10.1462 -7.03058 -0.0 0.0 -0.0 9.39928 -4.59899 -18.1791 -3.06595 30.5432 -57.9586 1.56533 37.788 -0.535781 -32.6828 2.20869 -3.48716 7.46113 -34.0693 -69.838 0.0 0.0 0.0 1.96971 -12.6079 -3.72528 -24.549 0.213973 3.73245 18.4769 24.4907 -2.65921 -40.0101 0.0 0.0 -0.0 0.0 -0.0 8.81875 -9.46921 -0.991908 -2.87023 -0.107491 -0.427327 -5.0715 20.5958 -0.859277 24.6233 -0.0 -0.0 0.0 0.0 0.0 
2542.67932906 755.224 -1486.9610707 110.88266616 87.818539257 -111.926335252 -0.684536 -0.144829 -0.587883 -0.68435 -0.107128 -0.595906 -0.683081 0.0277219 -0.604824 -0.683585 -0.068145 -0.601612 -7.40044 13.6706 5.17083 -7.36476 21.7959 8.00201 -0.0 0.0 -0.0 4.94928 24.4995 9.50324 -13.6796 13.9911 70.8121 0.410568 -11.4964 0.0413292 -8.24931 -0.362622 0.989404 -2.46117 12.8304 -10.2659 -0.0 0.0 -0.0 9.19175 -5.68338 -17.7019 -0.594201 29.5027 -60.1979 1.69501 40.0154 -0.617231 -29.8004 1.93739 -3.23616 7.4463 -33.5875 -69.8462 0.0 0.0 0.0 1.95191 -13.8242 -3.85314 -16.0468 0.321764 2.43349 15.2553 27.1918 -2.25759 -36.9942 0.0 0.0 -0.0 0.0 -0.0 8.09746 -9.32478 -0.814091 0.128897 0.0053289 0.0190626 0.0724856 25.9512 0.0128481 27.5271 -0.0 -0.0 0.0 0.0 0.0 
2533.45154957 755.122 -1475.87343588 158.324807481 86.7577711344 -159.650045553 -0.332727 -0.0653391 -0.56996 -0.332546 -0.0289392 -0.572963 -0.332152 0.095414 -0.565703 -0.332598 0.00487581 -0.573672 -6.96716 14.3452 5.741 -6.89619 22.5602 8.62952 -0.0 0.0 -0.0 4.59823 24.0549 9.03529 -15.8909 15.0287 71.3186 0.513097 -14.2612 0.0641885 -7.30105 -0.313725 0.878422 -3.15949 13.7423 -14.2763 -0.0 0.0 -0.0 9.13257 -5.82547 -17.5779 0.385695 27.3307 -61.1277 1.74082 40.7693 -0.646919 -28.2069 1.79294 -3.09167 7.42957 -33.0161 -69.8502 0.0 0.0 0.0 1.53428 -14.7721 -4.63043 -9.95701 0.28017 1.50048 13.4175 28.2522 -2.01192 -35.8441 0.0 0.0 -0.0 0.0 -0.0 7.16508 -9.40058 -0.844001 3.84692 0.177424 0.563473 1.22219 28.2471 0.222147 29.2855 -0.0 -0.0 0.0 0.0 0.0 
2466.49043306 761.54 -1470.43304474 -160.804536076 84.7142749909 161.069598848 0.847961 0.293339 -0.740879 0.848202 0.339888 -0.720713 0.843883 0.474421 -0.640217 0.843499 0.36736 -0.707105 -10.9678 20.0188 10.3089 -11.1135 31.1907 15.3204 -0.0 0.0 -0.0 2.28995 23.9327 5.87311 -16.3173 7.69604 71.2001 0.893324 -23.8704 0.18883 -2.75441 -0.105157 0.335958 -1.29347 7.67537 -5.20156 -0.0 0.0 -0.0 9.93231 -10.476 -18.6792 0.0188404 17.3779 -66.2244 1.73686 40.7048 -0.644331 -9.44675 0.426989 -1.12838 7.06363 -23.7038 -65.3326 0.0 0.0 0.0 1.40413 -13.6533 -8.89737 0.0872347 -0.00360197 -0.0129023 -9.05821 29.8938 1.44681 -28.0989 0.0 0.0 -0.0 0.0 -0.0 3.44547 -9.92741 -3.14931 7.28993 0.368053 1.05692 3.38531 29.1843 0.618573 28.2168 -0.0 -0.0 0.0 0.0 0.0 
2466.51459586 761.54 -1468.54533097 -161.890868796 84.40784524 162.160840403 0.847961 0.293339 -0.740879 0.848202 0.339888 -0.720713 0.843883 0.474421 -0.640217 0.843499 0.36736 -0.707105 -10.9678 20.0188 10.3089 -11.1135 31.1907 15.3204 -0.0 0.0 -0.0 2.28995 23.9327 5.87311 -16.3173 7.69604 71.2001 0.893324 -23.8704 0.18883 -2.75441 -0.105157 0.335958 -1.29347 7.67537 -5.20156 -0.0 0.0 -0.0 9.93231 -10.476 -18.6792 0.0188404 17.3779 -66.2244 1.73686 40.7048 -0.644331 -9.44675 0.426989 -1.12838 7.06363 -23.7038 -65.3326 0.0 0.0 0.0 1.40413 -13.6533 -8.89737 0.0872347 -0.00360197 -0.0129023 -9.05821 29.8938 1.44681 -28.0989 0.0 0.0 -0.0 0.0 -0.0 3.44547 -9.92741 -3.14931 7.28993 0.368053 1.05692 3.38531 29.1843 0.618573 28.2168 -0.0 -0.0 0.0 0.0 0.0 
